<svg xmlns="http://www.w3.org/2000/svg" viewBox="0 0 60 40" width="24" height="16">
  <!-- China Flag -->
  <rect width="60" height="40" fill="#DE2910"/>
  <!-- Large star -->
  <polygon points="12,5 13.5,9.5 18,9.5 14.5,12.5 15.5,17 12,14 8.5,17 9.5,12.5 6,9.5 10.5,9.5" fill="#FFDE00"/>
  <!-- Small stars -->
  <polygon points="22,3 22.6,4.8 24.5,4.8 23,6 23.5,7.8 22,6.8 20.5,7.8 21,6 19.5,4.8 21.4,4.8" fill="#FFDE00"/>
  <polygon points="26,7 26.6,8.8 28.5,8.8 27,10 27.5,11.8 26,10.8 24.5,11.8 25,10 23.5,8.8 25.4,8.8" fill="#FFDE00"/>
  <polygon points="26,13 26.6,14.8 28.5,14.8 27,16 27.5,17.8 26,16.8 24.5,17.8 25,16 23.5,14.8 25.4,14.8" fill="#FFDE00"/>
  <polygon points="22,17 22.6,18.8 24.5,18.8 23,20 23.5,21.8 22,20.8 20.5,21.8 21,20 19.5,18.8 21.4,18.8" fill="#FFDE00"/>
</svg>